<?xml version="1.0" encoding="UTF-8" standalone="no"?>
<!DOCTYPE svg PUBLIC "-//W3C//DTD SVG 1.1//EN" "http://www.w3.org/Graphics/SVG/1.1/DTD/svg11.dtd">
<svg width="100%" height="100%" viewBox="0 0 50 50" version="1.1" xmlns="http://www.w3.org/2000/svg" xmlns:xlink="http://www.w3.org/1999/xlink" xml:space="preserve" xmlns:serif="http://www.serif.com/" style="fill-rule:evenodd;clip-rule:evenodd;stroke-linejoin:round;stroke-miterlimit:2;">
    <path d="M25,0C38.798,0 50,11.202 50,25C50,38.798 38.798,50 25,50C11.202,50 0,38.798 0,25C0,11.202 11.202,0 25,0ZM25,3.518C36.856,3.518 46.482,13.144 46.482,25C46.482,36.856 36.856,46.482 25,46.482C13.144,46.482 3.518,36.856 3.518,25C3.518,13.144 13.144,3.518 25,3.518Z" style="fill:rgb(185,0,32);"/>
    <g transform="matrix(1.01963,0,0,1.01963,-0.576043,-0.981468)">
        <circle cx="25.084" cy="25.481" r="24.519" style="fill:rgb(178,16,34);"/>
    </g>
    <g transform="matrix(1.53985,0,0,1.47787,-13.4778,-17.0904)">
        <g transform="matrix(35.2365,0,0,35.2365,10.1484,41.7715)">
            <path d="M0.478,-0.393L0.79,-0.393L0.79,-0.368C0.79,-0.311 0.783,-0.261 0.77,-0.217C0.757,-0.177 0.735,-0.139 0.704,-0.104C0.634,-0.025 0.545,0.014 0.437,0.014C0.331,0.014 0.241,-0.024 0.166,-0.1C0.09,-0.177 0.053,-0.268 0.053,-0.375C0.053,-0.485 0.091,-0.578 0.167,-0.654C0.244,-0.73 0.337,-0.769 0.447,-0.769C0.506,-0.769 0.561,-0.757 0.612,-0.732C0.661,-0.708 0.709,-0.669 0.756,-0.615L0.675,-0.538C0.613,-0.62 0.538,-0.661 0.449,-0.661C0.369,-0.661 0.302,-0.634 0.248,-0.579C0.194,-0.525 0.167,-0.457 0.167,-0.375C0.167,-0.292 0.197,-0.222 0.257,-0.168C0.314,-0.118 0.375,-0.092 0.44,-0.092C0.496,-0.092 0.547,-0.111 0.591,-0.149C0.636,-0.187 0.661,-0.233 0.666,-0.286L0.478,-0.286L0.478,-0.393Z" style="fill-rule:nonzero;"/>
        </g>
    </g>
</svg>
