<?xml version="1.0" encoding="UTF-8" standalone="no"?>
<!DOCTYPE svg PUBLIC "-//W3C//DTD SVG 1.1//EN" "http://www.w3.org/Graphics/SVG/1.1/DTD/svg11.dtd">
<svg width="100%" height="100%" viewBox="0 0 50 50" version="1.1" xmlns="http://www.w3.org/2000/svg" xmlns:xlink="http://www.w3.org/1999/xlink" xml:space="preserve" xmlns:serif="http://www.serif.com/" style="fill-rule:evenodd;clip-rule:evenodd;stroke-linejoin:round;stroke-miterlimit:2;">
    <g transform="matrix(1.01963,0,0,1.01963,-0.576043,-0.981468)">
        <circle cx="25.084" cy="25.481" r="24.519" style="fill:rgb(135,186,211);"/>
    </g>
    <g transform="matrix(1.34471,0,0,1.31428,-0.828511,-12.4425)">
        <g transform="matrix(35.2365,0,0,35.2365,10.1484,41.7715)">
            <path d="M0.204,-0.306L0.204,0L0.09,0L0.09,-0.754L0.219,-0.754C0.282,-0.754 0.33,-0.75 0.362,-0.741C0.395,-0.732 0.424,-0.715 0.448,-0.691C0.492,-0.649 0.513,-0.595 0.513,-0.531C0.513,-0.462 0.49,-0.407 0.444,-0.367C0.398,-0.326 0.335,-0.306 0.257,-0.306L0.204,-0.306ZM0.204,-0.412L0.247,-0.412C0.351,-0.412 0.403,-0.452 0.403,-0.532C0.403,-0.61 0.349,-0.649 0.242,-0.649L0.204,-0.649L0.204,-0.412Z" style="fill-rule:nonzero;"/>
        </g>
    </g>
</svg>
