<?xml version="1.0" encoding="UTF-8" standalone="no"?>
<!DOCTYPE svg PUBLIC "-//W3C//DTD SVG 1.1//EN" "http://www.w3.org/Graphics/SVG/1.1/DTD/svg11.dtd">
<svg width="100%" height="100%" viewBox="0 0 50 50" version="1.1" xmlns="http://www.w3.org/2000/svg" xmlns:xlink="http://www.w3.org/1999/xlink" xml:space="preserve" xmlns:serif="http://www.serif.com/" style="fill-rule:evenodd;clip-rule:evenodd;stroke-linejoin:round;stroke-miterlimit:2;">
    <g transform="matrix(1.01963,0,0,1.01963,-0.576043,-0.981468)">
        <circle cx="25.084" cy="25.481" r="24.519" style="fill:rgb(47,124,156);"/>
    </g>
    <g transform="matrix(1.34471,0,0,1.31428,-6.1493,-12.7591)">
        <g transform="matrix(35.2365,0,0,35.2365,10.1484,41.7715)">
            <path d="M0.204,-0.754L0.204,-0.3C0.204,-0.235 0.215,-0.188 0.236,-0.158C0.267,-0.114 0.312,-0.093 0.369,-0.093C0.427,-0.093 0.471,-0.114 0.503,-0.158C0.524,-0.187 0.535,-0.234 0.535,-0.3L0.535,-0.754L0.648,-0.754L0.648,-0.269C0.648,-0.189 0.624,-0.124 0.574,-0.072C0.519,-0.015 0.45,0.014 0.369,0.014C0.288,0.014 0.22,-0.015 0.165,-0.072C0.115,-0.124 0.09,-0.189 0.09,-0.269L0.09,-0.754L0.204,-0.754Z" style="fill-rule:nonzero;"/>
        </g>
    </g>
</svg>
