<?xml version="1.0" encoding="UTF-8" standalone="no"?>
<!DOCTYPE svg PUBLIC "-//W3C//DTD SVG 1.1//EN" "http://www.w3.org/Graphics/SVG/1.1/DTD/svg11.dtd">
<svg width="100%" height="100%" viewBox="0 0 50 50" version="1.1" xmlns="http://www.w3.org/2000/svg" xmlns:xlink="http://www.w3.org/1999/xlink" xml:space="preserve" xmlns:serif="http://www.serif.com/" style="fill-rule:evenodd;clip-rule:evenodd;stroke-linejoin:round;stroke-miterlimit:2;">
    <g transform="matrix(1.01963,0,0,1.01963,-0.576043,-0.981468)">
        <circle cx="25.084" cy="25.481" r="24.519" style="fill:rgb(250,170,135);"/>
    </g>
    <g transform="matrix(1.4378,0,0,1.4378,-13.9343,4.59323)">
        <g transform="matrix(7.28976,0,0,7.28976,11.0847,17.5601)">
            <path d="M0.478,-0.393L0.79,-0.393L0.79,-0.368C0.79,-0.311 0.783,-0.261 0.77,-0.217C0.757,-0.177 0.735,-0.139 0.704,-0.104C0.634,-0.025 0.545,0.014 0.437,0.014C0.331,0.014 0.241,-0.024 0.166,-0.1C0.09,-0.177 0.053,-0.268 0.053,-0.375C0.053,-0.485 0.091,-0.578 0.167,-0.654C0.244,-0.73 0.337,-0.769 0.447,-0.769C0.506,-0.769 0.561,-0.757 0.612,-0.732C0.661,-0.708 0.709,-0.669 0.756,-0.615L0.675,-0.538C0.613,-0.62 0.538,-0.661 0.449,-0.661C0.369,-0.661 0.302,-0.634 0.248,-0.579C0.194,-0.525 0.167,-0.457 0.167,-0.375C0.167,-0.292 0.197,-0.222 0.257,-0.168C0.314,-0.118 0.375,-0.092 0.44,-0.092C0.496,-0.092 0.547,-0.111 0.591,-0.149C0.636,-0.187 0.661,-0.233 0.666,-0.286L0.478,-0.286L0.478,-0.393Z" style="fill-rule:nonzero;"/>
        </g>
        <g transform="matrix(7.28976,0,0,7.28976,17.2247,17.5601)">
            <path d="M0.346,-0.321L0.579,0L0.44,0L0.225,-0.309L0.204,-0.309L0.204,0L0.09,0L0.09,-0.754L0.224,-0.754C0.323,-0.754 0.395,-0.735 0.439,-0.698C0.488,-0.656 0.513,-0.601 0.513,-0.533C0.513,-0.479 0.497,-0.433 0.467,-0.395C0.436,-0.357 0.396,-0.332 0.346,-0.321ZM0.204,-0.408L0.24,-0.408C0.348,-0.408 0.402,-0.449 0.402,-0.531C0.402,-0.608 0.349,-0.647 0.245,-0.647L0.204,-0.647L0.204,-0.408Z" style="fill-rule:nonzero;"/>
        </g>
        <g transform="matrix(7.28976,0,0,7.28976,21.5316,17.5601)">
            <path d="M0.204,-0.754L0.204,-0.3C0.204,-0.235 0.215,-0.188 0.236,-0.158C0.267,-0.114 0.312,-0.093 0.369,-0.093C0.427,-0.093 0.471,-0.114 0.503,-0.158C0.524,-0.187 0.535,-0.234 0.535,-0.3L0.535,-0.754L0.648,-0.754L0.648,-0.269C0.648,-0.189 0.624,-0.124 0.574,-0.072C0.519,-0.015 0.45,0.014 0.369,0.014C0.288,0.014 0.22,-0.015 0.165,-0.072C0.115,-0.124 0.09,-0.189 0.09,-0.269L0.09,-0.754L0.204,-0.754ZM0.189,-0.9C0.189,-0.919 0.196,-0.936 0.209,-0.949C0.223,-0.963 0.239,-0.97 0.258,-0.97C0.278,-0.97 0.294,-0.963 0.308,-0.949C0.321,-0.936 0.328,-0.919 0.328,-0.899C0.328,-0.88 0.321,-0.864 0.308,-0.85C0.294,-0.836 0.278,-0.83 0.259,-0.83C0.239,-0.83 0.223,-0.836 0.209,-0.85C0.196,-0.864 0.189,-0.881 0.189,-0.9ZM0.408,-0.9C0.408,-0.919 0.415,-0.936 0.429,-0.949C0.442,-0.963 0.459,-0.97 0.478,-0.97C0.497,-0.97 0.514,-0.963 0.527,-0.949C0.541,-0.936 0.548,-0.919 0.548,-0.899C0.548,-0.88 0.541,-0.864 0.527,-0.85C0.514,-0.836 0.497,-0.83 0.478,-0.83C0.458,-0.83 0.442,-0.836 0.428,-0.85C0.415,-0.864 0.408,-0.881 0.408,-0.9Z" style="fill-rule:nonzero;"/>
        </g>
        <g transform="matrix(7.28976,0,0,7.28976,26.9171,17.5601)">
            <path d="M0.09,0L0.09,-0.805L0.64,-0.23L0.64,-0.754L0.754,-0.754L0.754,0.046L0.204,-0.528L0.204,0L0.09,0Z" style="fill-rule:nonzero;"/>
        </g>
        <g transform="matrix(7.28976,0,0,7.28976,33.0714,17.5601)">
            <path d="M0.506,-0.647L0.204,-0.647L0.204,-0.466L0.498,-0.466L0.498,-0.359L0.204,-0.359L0.204,-0.107L0.506,-0.107L0.506,0L0.09,0L0.09,-0.754L0.506,-0.754L0.506,-0.647Z" style="fill-rule:nonzero;"/>
        </g>
        <g transform="matrix(7.28976,0,0,7.28976,37.1932,17.5601)">
            <path d="M0.09,0L0.09,-0.805L0.64,-0.23L0.64,-0.754L0.754,-0.754L0.754,0.046L0.204,-0.528L0.204,0L0.09,0Z" style="fill-rule:nonzero;"/>
        </g>
    </g>
    <g transform="matrix(1.19992,0,0,1.19992,4.62424,-4.83977)">
        <g transform="matrix(7.28976,0,0,7.28976,11.0847,17.5601)">
            <path d="M0.09,0L0.09,-0.754L0.249,-0.754C0.324,-0.754 0.384,-0.746 0.428,-0.731C0.475,-0.717 0.518,-0.692 0.557,-0.657C0.634,-0.586 0.673,-0.493 0.673,-0.377C0.673,-0.261 0.633,-0.167 0.552,-0.096C0.511,-0.06 0.468,-0.035 0.424,-0.021C0.382,-0.007 0.323,0 0.247,0L0.09,0ZM0.204,-0.107L0.255,-0.107C0.306,-0.107 0.349,-0.112 0.383,-0.123C0.417,-0.134 0.447,-0.153 0.475,-0.177C0.531,-0.228 0.559,-0.295 0.559,-0.377C0.559,-0.46 0.531,-0.527 0.476,-0.578C0.426,-0.624 0.352,-0.647 0.255,-0.647L0.204,-0.647L0.204,-0.107Z" style="fill-rule:nonzero;"/>
        </g>
        <g transform="matrix(7.28976,0,0,7.28976,16.3776,17.5601)">
            <rect x="0.09" y="-0.754" width="0.114" height="0.754" style="fill-rule:nonzero;"/>
        </g>
        <g transform="matrix(7.28976,0,0,7.28976,18.5275,17.5601)">
            <path d="M0.506,-0.647L0.204,-0.647L0.204,-0.466L0.498,-0.466L0.498,-0.359L0.204,-0.359L0.204,-0.107L0.506,-0.107L0.506,0L0.09,0L0.09,-0.754L0.506,-0.754L0.506,-0.647Z" style="fill-rule:nonzero;"/>
        </g>
    </g>
</svg>
