<?xml version="1.0" encoding="UTF-8" standalone="no"?>
<!DOCTYPE svg PUBLIC "-//W3C//DTD SVG 1.1//EN" "http://www.w3.org/Graphics/SVG/1.1/DTD/svg11.dtd">
<svg width="100%" height="100%" viewBox="0 0 50 50" version="1.1" xmlns="http://www.w3.org/2000/svg" xmlns:xlink="http://www.w3.org/1999/xlink" xml:space="preserve" xmlns:serif="http://www.serif.com/" style="fill-rule:evenodd;clip-rule:evenodd;stroke-linejoin:round;stroke-miterlimit:2;">
    <g transform="matrix(1.01963,0,0,1.01963,-0.576043,-0.981468)">
        <circle cx="25.084" cy="25.481" r="24.519" style="fill:rgb(178,16,34);"/>
    </g>
    <g transform="matrix(1.53985,0,0,1.47787,-13.4778,-17.0904)">
        <g transform="matrix(1.04446,0,0,1.08827,7.25211,3.48396)">
            <g transform="matrix(7.28976,0,0,7.28976,11.0847,17.5601)">
                <path d="M0.09,0L0.09,-0.754L0.249,-0.754C0.324,-0.754 0.384,-0.746 0.428,-0.731C0.475,-0.717 0.518,-0.692 0.557,-0.657C0.634,-0.586 0.673,-0.493 0.673,-0.377C0.673,-0.261 0.633,-0.167 0.552,-0.096C0.511,-0.06 0.468,-0.035 0.424,-0.021C0.382,-0.007 0.323,0 0.247,0L0.09,0ZM0.204,-0.107L0.255,-0.107C0.306,-0.107 0.349,-0.112 0.383,-0.123C0.417,-0.134 0.447,-0.153 0.475,-0.177C0.531,-0.228 0.559,-0.295 0.559,-0.377C0.559,-0.46 0.531,-0.527 0.476,-0.578C0.426,-0.624 0.352,-0.647 0.255,-0.647L0.204,-0.647L0.204,-0.107Z" style="fill-rule:nonzero;"/>
            </g>
            <g transform="matrix(7.28976,0,0,7.28976,16.3776,17.5601)">
                <rect x="0.09" y="-0.754" width="0.114" height="0.754" style="fill-rule:nonzero;"/>
            </g>
            <g transform="matrix(7.28976,0,0,7.28976,18.5275,17.5601)">
                <path d="M0.506,-0.647L0.204,-0.647L0.204,-0.466L0.498,-0.466L0.498,-0.359L0.204,-0.359L0.204,-0.107L0.506,-0.107L0.506,0L0.09,0L0.09,-0.754L0.506,-0.754L0.506,-0.647Z" style="fill-rule:nonzero;"/>
            </g>
        </g>
        <g transform="matrix(1.51906,0,0,1.58277,-7.58448,6.08727)">
            <g transform="matrix(7.28976,0,0,7.28976,11.0847,17.5601)">
                <path d="M0.204,-0.754L0.204,-0.107L0.426,-0.107L0.426,0L0.09,0L0.09,-0.754L0.204,-0.754Z" style="fill-rule:nonzero;"/>
            </g>
            <g transform="matrix(7.28976,0,0,7.28976,14.3166,17.5601)">
                <rect x="0.09" y="-0.754" width="0.114" height="0.754" style="fill-rule:nonzero;"/>
            </g>
            <g transform="matrix(7.28976,0,0,7.28976,16.4665,17.5601)">
                <path d="M0.09,0L0.09,-0.805L0.64,-0.23L0.64,-0.754L0.754,-0.754L0.754,0.046L0.204,-0.528L0.204,0L0.09,0Z" style="fill-rule:nonzero;"/>
            </g>
            <g transform="matrix(7.28976,0,0,7.28976,22.6208,17.5601)">
                <path d="M0.204,-0.453L0.498,-0.754L0.649,-0.754L0.309,-0.413L0.651,0L0.499,0L0.228,-0.335L0.204,-0.312L0.204,0L0.09,0L0.09,-0.754L0.204,-0.754L0.204,-0.453Z" style="fill-rule:nonzero;"/>
            </g>
            <g transform="matrix(7.28976,0,0,7.28976,27.451,17.5601)">
                <path d="M0.506,-0.647L0.204,-0.647L0.204,-0.466L0.498,-0.466L0.498,-0.359L0.204,-0.359L0.204,-0.107L0.506,-0.107L0.506,0L0.09,0L0.09,-0.754L0.506,-0.754L0.506,-0.647Z" style="fill-rule:nonzero;"/>
            </g>
        </g>
    </g>
</svg>
