<?xml version="1.0" encoding="UTF-8" standalone="no"?>
<!DOCTYPE svg PUBLIC "-//W3C//DTD SVG 1.1//EN" "http://www.w3.org/Graphics/SVG/1.1/DTD/svg11.dtd">
<svg width="100%" height="100%" viewBox="0 0 50 50" version="1.1" xmlns="http://www.w3.org/2000/svg" xmlns:xlink="http://www.w3.org/1999/xlink" xml:space="preserve" xmlns:serif="http://www.serif.com/" style="fill-rule:evenodd;clip-rule:evenodd;stroke-linejoin:round;stroke-miterlimit:2;">
    <g transform="matrix(1.01963,0,0,1.01963,-0.576043,-0.981468)">
        <circle cx="25.084" cy="25.481" r="24.519" style="fill:rgb(135,186,211);"/>
    </g>
    <g transform="matrix(48.8891,0,0,49.4076,8.48137,43.624)">
        <g>
            <g>
                <path d="M0.09,0L0.09,-0.754L0.249,-0.754C0.324,-0.754 0.384,-0.746 0.428,-0.731C0.475,-0.717 0.518,-0.692 0.557,-0.657C0.634,-0.586 0.673,-0.493 0.673,-0.377C0.673,-0.261 0.633,-0.167 0.552,-0.096C0.511,-0.06 0.468,-0.035 0.424,-0.021C0.382,-0.007 0.323,0 0.247,0L0.09,0ZM0.204,-0.107L0.255,-0.107C0.306,-0.107 0.349,-0.112 0.383,-0.123C0.417,-0.134 0.447,-0.153 0.475,-0.177C0.531,-0.228 0.559,-0.295 0.559,-0.377C0.559,-0.46 0.531,-0.527 0.476,-0.578C0.426,-0.624 0.352,-0.647 0.255,-0.647L0.204,-0.647L0.204,-0.107Z" style="fill-rule:nonzero;"/>
            </g>
        </g>
    </g>
</svg>
